<?xml version="1.0" standalone="no"?>
<!DOCTYPE svg PUBLIC "-//W3C//DTD SVG 20010904//EN"
 "http://www.w3.org/TR/2001/REC-SVG-20010904/DTD/svg10.dtd">
<svg version="1.0" xmlns="http://www.w3.org/2000/svg"
 width="1120.000000pt" height="1120.000000pt" viewBox="0 0 1120.000000 1120.000000"
 preserveAspectRatio="xMidYMid meet">

<g transform="translate(0.000000,1120.000000) scale(0.100000,-0.100000)"
fill="#000000" stroke="none">
<path d="M4965 8765 c-113 -21 -242 -53 -367 -92 l-118 -36 -98 -126 c-309
-395 -512 -697 -687 -1019 -88 -161 -87 -164 4 -155 67 7 245 50 249 61 1 4
12 25 25 46 19 35 29 41 82 55 l60 16 40 75 c33 62 45 76 67 78 27 3 26 1 -57
-165 -47 -92 -85 -172 -85 -177 0 -22 193 26 303 74 35 16 49 29 58 55 11 28
21 37 70 55 32 11 66 28 77 38 12 9 56 111 102 232 150 391 278 695 376 893
l54 107 -42 -1 c-24 0 -74 -7 -113 -14z m36 -102 c-68 -136 -318 -743 -406
-987 -22 -61 -35 -83 -59 -97 -32 -20 -185 -72 -243 -82 l-31 -6 28 63 c16 35
56 114 90 174 33 61 60 113 60 115 0 5 -153 -19 -193 -31 -23 -6 -42 -30 -92
-117 -36 -61 -64 -115 -65 -122 0 -20 -172 -63 -251 -63 l-41 0 48 88 c148
273 324 550 496 779 154 206 167 217 273 249 151 45 348 93 383 94 l32 0 -29
-57z"/>
<path d="M4595 8392 c-47 -16 -54 -23 -126 -130 -42 -62 -86 -131 -99 -154
l-23 -41 74 7 c41 4 79 11 86 15 11 6 163 303 163 317 0 7 -24 3 -75 -14z"/>
<path d="M5975 8703 c-22 -2 -77 -8 -123 -14 l-83 -11 -39 -78 c-24 -48 -46
-79 -59 -83 -20 -5 -59 -80 -188 -367 -119 -263 -274 -669 -297 -777 l-7 -31
87 19 c184 40 205 49 221 89 13 33 22 39 81 58 l67 22 48 126 c89 231 252 575
437 922 l70 132 -87 -2 c-49 -1 -106 -3 -128 -5z m54 -175 c-149 -279 -342
-698 -410 -891 l-24 -68 -65 -18 c-85 -25 -155 -41 -174 -41 -37 0 182 564
379 977 l68 142 51 10 c59 12 108 17 189 19 l57 2 -71 -132z"/>
<path d="M7197 8695 c-73 -18 -189 -72 -264 -122 -99 -65 -211 -181 -335 -347
-186 -247 -260 -415 -262 -586 0 -76 3 -104 20 -140 79 -172 276 -221 515
-129 70 27 81 34 86 60 7 36 11 39 100 73 l72 27 17 77 c17 74 24 255 11 268
-3 3 -30 -5 -59 -19 -113 -53 -219 -56 -264 -6 -29 32 -23 103 16 184 28 59
38 69 78 88 32 14 75 22 135 25 l88 5 47 58 c40 49 51 57 73 53 22 -4 35 5 82
57 67 73 227 295 227 314 0 8 -26 26 -57 42 -51 24 -71 28 -163 30 -66 2 -126
-3 -163 -12z m281 -50 l42 -17 -50 -72 c-27 -39 -79 -108 -114 -152 l-65 -82
-89 -4 c-76 -3 -99 -9 -166 -41 -154 -73 -262 -214 -274 -355 -6 -76 11 -117
61 -148 45 -27 162 -25 236 4 30 12 57 19 59 17 7 -6 -17 -170 -28 -200 -30
-80 -306 -129 -426 -76 -127 56 -182 186 -150 353 69 356 396 712 721 782 83
18 184 14 243 -9z"/>
<path d="M2100 4600 l0 -500 500 0 500 0 0 500 0 500 -500 0 -500 0 0 -500z"/>
<path d="M7093 709 c-18 -5 -48 -25 -67 -44 -87 -86 -69 -241 34 -292 57 -29
150 -31 200 -4 44 23 47 38 16 76 -24 30 -24 30 -54 13 -75 -44 -142 -8 -142
74 0 38 5 50 26 67 30 24 70 27 109 9 23 -11 29 -9 58 21 l32 32 -25 19 c-47
37 -120 48 -187 29z"/>
<path d="M2722 547 c-40 -89 -72 -168 -72 -174 0 -9 17 -13 54 -13 49 0 54 2
60 25 6 24 10 25 84 25 76 0 78 0 88 -29 10 -26 15 -28 59 -27 27 0 50 6 52
13 2 6 -18 60 -45 120 -27 59 -60 134 -73 165 l-24 58 -55 0 -55 0 -73 -163z
m146 4 c7 -21 12 -41 12 -45 0 -7 -55 -8 -62 0 -7 7 22 84 32 84 4 0 12 -17
18 -39z"/>
<path d="M3100 535 l0 -175 55 -1 c30 0 87 0 125 0 39 0 75 0 80 0 6 1 10 22
10 47 l0 46 -82 -3 -83 -4 -3 133 -3 132 -49 0 -50 0 0 -175z"/>
<path d="M3420 536 l0 -176 50 0 50 0 0 45 0 45 50 0 c63 0 110 19 139 56 19
24 22 38 19 82 -4 43 -11 59 -37 85 -31 32 -32 32 -151 35 l-120 4 0 -176z
m184 78 c9 -4 16 -18 16 -34 0 -31 -15 -40 -66 -40 -33 0 -34 1 -34 40 0 39 1
40 34 40 19 0 41 -3 50 -6z"/>
<path d="M3772 548 c-40 -90 -72 -169 -72 -175 0 -9 17 -13 54 -13 48 0 54 2
60 24 7 28 28 33 107 28 49 -3 56 -6 65 -31 10 -24 15 -27 60 -26 38 1 49 5
49 17 0 9 -31 89 -70 177 l-70 161 -55 0 -56 0 -72 -162z m146 3 c7 -21 12
-41 12 -45 0 -7 -55 -8 -62 0 -7 7 22 84 32 84 4 0 12 -17 18 -39z"/>
<path d="M4150 532 l0 -178 43 2 c23 0 45 2 50 3 4 0 7 25 7 54 1 52 1 52 19
30 70 -84 63 -80 134 -85 41 -4 67 -2 67 4 0 5 -31 45 -70 87 -38 43 -70 82
-70 87 1 5 30 43 65 84 36 41 65 78 65 83 0 4 -28 7 -62 7 l-63 -1 -40 -52
-40 -52 -3 53 -3 52 -50 0 -49 0 0 -178z"/>
<path d="M4562 548 c-40 -90 -72 -169 -72 -175 0 -9 17 -13 54 -13 48 0 54 2
60 24 7 28 28 33 107 28 49 -3 56 -6 65 -31 10 -24 15 -27 60 -26 38 1 49 5
49 17 0 9 -31 89 -70 177 l-70 161 -55 0 -56 0 -72 -162z m146 3 c7 -21 12
-41 12 -45 0 -7 -55 -8 -62 0 -7 7 22 84 32 84 4 0 12 -17 18 -39z"/>
<path d="M5130 536 c0 -192 -2 -186 66 -186 l34 0 0 180 0 180 -50 0 -50 0 0
-174z"/>
<path d="M5302 533 l3 -178 35 -1 c67 -1 67 -2 63 94 -5 99 -12 100 80 -21 61
-80 63 -81 116 -71 l31 6 0 174 0 174 -56 0 -56 0 4 -88 3 -88 -68 88 c-67 87
-68 88 -113 88 l-44 0 2 -177z"/>
<path d="M5690 536 c0 -114 4 -176 11 -178 5 -2 28 -2 49 0 l39 4 3 57 3 56
78 -1 78 -1 -3 46 -3 46 -77 -3 -78 -4 0 31 0 31 85 0 85 0 0 45 0 45 -135 0
-135 0 0 -174z"/>
<path d="M6010 534 l0 -175 53 3 52 3 -3 53 c-4 48 -2 53 14 50 10 -2 34 -27
54 -55 l35 -53 63 0 c71 0 70 -3 9 74 -38 49 -38 50 -16 61 48 26 63 102 32
156 -28 46 -67 59 -187 59 l-106 0 0 -176z m184 83 c11 -8 17 -23 14 -38 -3
-21 -9 -24 -50 -27 l-48 -3 0 34 c0 18 3 37 7 40 11 12 58 8 77 -6z"/>
<path d="M6422 548 c-40 -90 -72 -169 -72 -175 0 -9 17 -13 54 -13 48 0 54 2
60 24 7 28 28 33 107 28 49 -3 56 -6 65 -31 10 -24 15 -27 60 -26 38 1 49 5
49 17 0 9 -31 89 -70 177 l-70 161 -55 0 -56 0 -72 -162z m146 3 c7 -21 12
-41 12 -45 0 -7 -55 -8 -62 0 -7 7 22 84 32 84 4 0 12 -17 18 -39z"/>
<path d="M7340 534 l0 -175 53 3 52 3 -3 53 c-4 48 -2 53 14 50 10 -2 34 -27
54 -55 l35 -53 63 0 c71 0 70 -3 9 74 -38 49 -38 50 -16 61 48 26 63 102 32
156 -28 46 -67 59 -187 59 l-106 0 0 -176z m184 83 c11 -8 17 -23 14 -38 -3
-21 -9 -24 -50 -27 l-48 -3 0 34 c0 18 3 37 7 40 11 12 58 8 77 -6z"/>
<path d="M7712 533 l3 -177 65 0 c36 1 98 2 138 3 l73 1 -3 43 -3 42 -87 3
c-79 2 -88 5 -88 22 0 17 9 20 82 22 89 3 97 9 84 64 -6 23 -10 24 -86 24 -73
0 -80 2 -80 20 0 18 7 20 85 20 47 0 85 3 86 8 0 4 1 23 2 42 l2 35 -138 3
-137 3 2 -178z"/>
<path d="M8010 701 c0 -6 16 -53 36 -103 20 -51 45 -118 56 -148 30 -83 31
-85 79 -88 l44 -3 24 70 c13 39 27 68 32 66 4 -3 17 -34 29 -70 l22 -65 39 0
c21 0 42 0 47 1 5 0 98 239 128 332 5 15 -2 17 -54 17 l-60 0 -26 -82 c-14
-46 -26 -90 -27 -98 0 -17 -19 36 -43 123 l-17 58 -42 -3 -42 -3 -24 -88 -25
-88 -31 88 -32 88 -57 3 c-34 2 -56 -1 -56 -7z"/>
</g>
</svg>
